<?xml version="1.0" encoding="UTF-8"?>
<svg width="32px" height="22px" viewBox="0 0 32 22" version="1.1" xmlns="http://www.w3.org/2000/svg" xmlns:xlink="http://www.w3.org/1999/xlink">
    <g id="Website" stroke="none" stroke-width="1" fill="none" fill-rule="evenodd">
        <g id="01-01-wireframe_landing-" transform="translate(-1248.000000, -750.000000)" fill="#000000" fill-rule="nonzero">
            <g id="right-(2)-copy-2" transform="translate(1264.000000, 760.666656) rotate(-360.000000) translate(-1264.000000, -760.666656) translate(1248.000000, 750.000000)">
                <path d="M31.8046642,10.1953207 L21.8046715,0.195327982 C21.5442342,-0.0651093273 21.1223595,-0.0651093273 20.8619847,0.195327982 C20.6015474,0.455765291 20.6015474,0.877639982 20.8619847,1.13801479 L29.7239782,10 L0.666687012,10 C0.298187282,10 0,10.2981956 0,10.6666953 C0,11.035195 0.298187282,11.3333823 0.666687012,11.3333823 L29.7239782,11.3333823 L20.8619847,20.1953133 C20.6015474,20.4557506 20.6015474,20.8776253 20.8619847,21.1380001 C20.9921721,21.2681875 21.162797,21.3333125 21.3333594,21.3333125 C21.5039217,21.3333125 21.6744841,21.2681875 21.804734,21.1380001 L31.8047267,11.1380075 C32.0651015,10.8776327 32.0651015,10.455758 31.8046642,10.1953207 Z" id="Path"></path>
            </g>
        </g>
    </g>
</svg>